<svg width="90" height="90" viewBox="0 0 90 90" fill="none" xmlns="http://www.w3.org/2000/svg">
<path d="M45 59.0625C52.7665 59.0625 59.0625 52.7665 59.0625 45C59.0625 37.2335 52.7665 30.9375 45 30.9375C37.2335 30.9375 30.9375 37.2335 30.9375 45C30.9375 52.7665 37.2335 59.0625 45 59.0625Z" stroke="#4C6869" stroke-width="2" stroke-miterlimit="10"/>
<path d="M60.4688 12.6562H29.5312C20.2114 12.6562 12.6562 20.2114 12.6562 29.5312V60.4688C12.6562 69.7886 20.2114 77.3438 29.5312 77.3438H60.4688C69.7886 77.3438 77.3438 69.7886 77.3438 60.4688V29.5312C77.3438 20.2114 69.7886 12.6562 60.4688 12.6562Z" stroke="#4C6869" stroke-width="2" stroke-linecap="round" stroke-linejoin="round"/>
<path d="M63.2812 30.9375C65.6112 30.9375 67.5 29.0487 67.5 26.7188C67.5 24.3888 65.6112 22.5 63.2812 22.5C60.9513 22.5 59.0625 24.3888 59.0625 26.7188C59.0625 29.0487 60.9513 30.9375 63.2812 30.9375Z" fill="#4C6869"/>
</svg>
